<svg height="512pt" viewBox="-39 0 512 512" width="512pt" xmlns="http://www.w3.org/2000/svg"><path d="m34.710938 512h-17.355469c-9.585938 0-17.355469-7.769531-17.355469-17.355469v-442.578125c0-9.585937 7.769531-17.355468 17.355469-17.355468h399.1875c9.585937 0 17.355469 7.769531 17.355469 17.355468v355.796875l-130.167969 60.746094-199.59375 43.390625zm0 0" fill="#f3d55b"/><path d="m433.898438 381.832031v18.222657c.019531 21.855468-11.699219 42.035156-30.695313 52.847656-62.332031 35.230468-132.015625 55.464844-203.523437 59.097656h-164.96875c234.304687 0 329.761718-147.527344 329.761718-147.527344v15.882813c-.300781 18.25 13.207032 33.789062 31.320313 36.03125 9.75.957031 19.453125-2.25 26.710937-8.832031 7.257813-6.582032 11.398438-15.925782 11.394532-25.722657zm0 0" fill="#f29c1f"/><path d="m147.527344 34.710938v121.492187c0 28.757813-23.3125 52.066406-52.070313 52.066406-28.753906 0-52.066406-23.308593-52.066406-52.066406v-52.066406c0-4.792969 3.882813-8.679688 8.675781-8.679688 4.792969 0 8.679688 3.886719 8.679688 8.679688v52.066406c0 19.171875 15.539062 34.710937 34.710937 34.710937s34.710938-15.539062 34.710938-34.710937v-121.492187c-.027344-9.574219-7.78125-17.328126-17.355469-17.355469h-34.710938c-9.574218.027343-17.328124 7.78125-17.355468 17.355469h-17.355469c0-19.167969 15.539063-34.710938 34.710937-34.710938h34.710938c19.171875 0 34.714844 15.542969 34.714844 34.710938zm0 0" fill="#95a5a5"/><g fill="#894b9d"><path d="m121.492188 329.761719c-3.046876 0-5.867188-1.597657-7.4375-4.207031l-35.953126-59.921876v55.453126c0 4.792968-3.886718 8.675781-8.679687 8.675781-4.789063 0-8.675781-3.882813-8.675781-8.675781v-86.78125c0-3.898438 2.601562-7.316407 6.359375-8.359376 3.757812-1.042968 7.746093.550782 9.753906 3.890626l35.953125 59.921874v-55.453124c0-4.792969 3.886719-8.675782 8.679688-8.675782 4.792968 0 8.675781 3.882813 8.675781 8.675782v86.78125c0 4.792968-3.882813 8.675781-8.675781 8.675781zm0 0"/><path d="m190.914062 329.761719h-17.355468c-14.378906 0-26.03125-11.65625-26.03125-26.03125v-52.070313c0-14.378906 11.652344-26.03125 26.03125-26.03125h17.355468c14.378907 0 26.035157 11.652344 26.035157 26.03125v52.070313c0 14.375-11.65625 26.03125-26.035157 26.03125zm-17.355468-86.777344c-4.792969 0-8.675782 3.882813-8.675782 8.675781v52.070313c0 4.792969 3.882813 8.675781 8.675782 8.675781h17.355468c4.792969 0 8.679688-3.882812 8.679688-8.675781v-52.070313c0-4.792968-3.886719-8.675781-8.679688-8.675781zm0 0"/><path d="m286.371094 242.984375h-52.066406c-4.792969 0-8.675782-3.886719-8.675782-8.679687 0-4.792969 3.882813-8.675782 8.675782-8.675782h52.066406c4.792968 0 8.679687 3.882813 8.679687 8.675782 0 4.792968-3.886719 8.679687-8.679687 8.679687zm0 0"/><path d="m260.339844 329.761719c-4.792969 0-8.679688-3.882813-8.679688-8.675781v-86.78125c0-4.792969 3.886719-8.675782 8.679688-8.675782 4.792968 0 8.675781 3.882813 8.675781 8.675782v86.78125c0 4.792968-3.882813 8.675781-8.675781 8.675781zm0 0"/><path d="m373.152344 329.761719h-52.066406c-4.792969 0-8.679688-3.882813-8.679688-8.675781v-86.78125c0-4.792969 3.886719-8.675782 8.679688-8.675782h52.066406c4.792968 0 8.679687 3.882813 8.679687 8.675782 0 4.792968-3.886719 8.679687-8.679687 8.679687h-43.390625v69.421875h43.390625c4.792968 0 8.679687 3.886719 8.679687 8.679688 0 4.792968-3.886719 8.675781-8.679687 8.675781zm0 0"/><path d="m373.152344 286.371094h-52.066406c-4.792969 0-8.679688-3.882813-8.679688-8.675782 0-4.792968 3.886719-8.679687 8.679688-8.679687h52.066406c4.792968 0 8.679687 3.886719 8.679687 8.679687 0 4.792969-3.886719 8.675782-8.679687 8.675782zm0 0"/></g></svg>