<?xml version="1.0" encoding="UTF-8" standalone="no"?>
<!-- Generator: Adobe Illustrator 19.0.0, SVG Export Plug-In . SVG Version: 6.00 Build 0)  -->

<svg
        xmlns:dc="http://purl.org/dc/elements/1.1/"
        xmlns:cc="http://creativecommons.org/ns#"
        xmlns:rdf="http://www.w3.org/1999/02/22-rdf-syntax-ns#"
        xmlns="http://www.w3.org/2000/svg"
        xmlns:sodipodi="http://sodipodi.sourceforge.net/DTD/sodipodi-0.dtd"
        xmlns:inkscape="http://www.inkscape.org/namespaces/inkscape"
        version="1.1"
        id="Layer_1"
        x="0px"
        y="0px"
        viewBox="0 0 16 14.195312"
        xml:space="preserve"
        sodipodi:docname="list.svg"
        width="16"
        height="14.195312"
        inkscape:version="0.92.3 (2405546, 2018-03-11)"><metadata
   id="metadata1623"><rdf:RDF><cc:Work
       rdf:about=""><dc:format>image/svg+xml</dc:format><dc:type
         rdf:resource="http://purl.org/dc/dcmitype/StillImage" /><dc:title></dc:title></cc:Work></rdf:RDF></metadata><defs
   id="defs1621" /><sodipodi:namedview
   pagecolor="#ffffff"
   bordercolor="#666666"
   borderopacity="1"
   objecttolerance="10"
   gridtolerance="10"
   guidetolerance="10"
   inkscape:pageopacity="0"
   inkscape:pageshadow="2"
   inkscape:window-width="1920"
   inkscape:window-height="1030"
   id="namedview1619"
   showgrid="false"
   fit-margin-top="1"
   fit-margin-left="1"
   fit-margin-right="1"
   fit-margin-bottom="1"
   inkscape:zoom="32"
   inkscape:cx="15.679175"
   inkscape:cy="12.7601"
   inkscape:window-x="0"
   inkscape:window-y="0"
   inkscape:window-maximized="1"
   inkscape:current-layer="Layer_1" />
<g
   id="g1556"
   transform="matrix(0.02734375,0,0,0.02734375,1,0.09765625)">
	<g
   id="g1554">
		<path
   d="M 63,33 C 28.262,33 0,61.262 0,96 c 0,34.738 28.262,63 63,63 34.738,0 63,-28.262 63,-63 C 126,61.262 97.738,33 63,33 Z"
   id="path1552"
   inkscape:connector-curvature="0"
   style="fill:#afb1b3;fill-opacity:1" />
	</g>
</g>
<g
   id="g1562"
   transform="matrix(0.02734375,0,0,0.02734375,1,0.09765625)">
	<g
   id="g1560">
		<path
   d="m 63,193 c -34.738,0 -63,28.262 -63,63 0,34.738 28.262,63 63,63 34.738,0 63,-28.262 63,-63 0,-34.738 -28.262,-63 -63,-63 z"
   id="path1558"
   inkscape:connector-curvature="0"
   style="fill:#afb1b3;fill-opacity:1" />
	</g>
</g>
<g
   id="g1568"
   transform="matrix(0.02734375,0,0,0.02734375,1,0.09765625)">
	<g
   id="g1566">
		<path
   d="m 63,353 c -34.738,0 -63,28.262 -63,63 0,34.738 28.262,63 63,63 34.738,0 63,-28.262 63,-63 0,-34.738 -28.262,-63 -63,-63 z"
   id="path1564"
   inkscape:connector-curvature="0"
   style="fill:#afb1b3;fill-opacity:1" />
	</g>
</g>
<g
   id="g1574"
   transform="matrix(0.02734375,0,0,0.02734375,1,0.09765625)">
	<g
   id="g1572">
		<path
   d="M 465,49 H 207 c -25.916,0 -47,21.084 -47,47 0,25.916 21.084,47 47,47 h 258 c 25.916,0 47,-21.084 47,-47 0,-25.916 -21.084,-47 -47,-47 z"
   id="path1570"
   inkscape:connector-curvature="0"
   style="fill:#afb1b3;fill-opacity:1" />
	</g>
</g>
<g
   id="g1580"
   transform="matrix(0.02734375,0,0,0.02734375,1,0.09765625)">
	<g
   id="g1578">
		<path
   d="M 465,209 H 207 c -25.916,0 -47,21.084 -47,47 0,25.916 21.084,47 47,47 h 258 c 25.916,0 47,-21.084 47,-47 0,-25.916 -21.084,-47 -47,-47 z"
   id="path1576"
   inkscape:connector-curvature="0"
   style="stroke:#afb1b3;stroke-opacity:1;fill:#afb1b3;fill-opacity:1" />
	</g>
</g>
<g
   id="g1586"
   transform="matrix(0.02734375,0,0,0.02734375,1,0.09765625)">
	<g
   id="g1584">
		<path
   d="M 465,369 H 207 c -25.916,0 -47,21.084 -47,47 0,25.916 21.084,47 47,47 h 258 c 25.916,0 47,-21.084 47,-47 0,-25.916 -21.084,-47 -47,-47 z"
   id="path1582"
   inkscape:connector-curvature="0"
   style="fill:#afb1b3;fill-opacity:1" />
	</g>
</g>
<g
   id="g1588"
   transform="matrix(0.02734375,0,0,0.02734375,1,0.09765625)">
</g>
<g
   id="g1590"
   transform="matrix(0.02734375,0,0,0.02734375,1,0.09765625)">
</g>
<g
   id="g1592"
   transform="matrix(0.02734375,0,0,0.02734375,1,0.09765625)">
</g>
<g
   id="g1594"
   transform="matrix(0.02734375,0,0,0.02734375,1,0.09765625)">
</g>
<g
   id="g1596"
   transform="matrix(0.02734375,0,0,0.02734375,1,0.09765625)">
</g>
<g
   id="g1598"
   transform="matrix(0.02734375,0,0,0.02734375,1,0.09765625)">
</g>
<g
   id="g1600"
   transform="matrix(0.02734375,0,0,0.02734375,1,0.09765625)">
</g>
<g
   id="g1602"
   transform="matrix(0.02734375,0,0,0.02734375,1,0.09765625)">
</g>
<g
   id="g1604"
   transform="matrix(0.02734375,0,0,0.02734375,1,0.09765625)">
</g>
<g
   id="g1606"
   transform="matrix(0.02734375,0,0,0.02734375,1,0.09765625)">
</g>
<g
   id="g1608"
   transform="matrix(0.02734375,0,0,0.02734375,1,0.09765625)">
</g>
<g
   id="g1610"
   transform="matrix(0.02734375,0,0,0.02734375,1,0.09765625)">
</g>
<g
   id="g1612"
   transform="matrix(0.02734375,0,0,0.02734375,1,0.09765625)">
</g>
<g
   id="g1614"
   transform="matrix(0.02734375,0,0,0.02734375,1,0.09765625)">
</g>
<g
   id="g1616"
   transform="matrix(0.02734375,0,0,0.02734375,1,0.09765625)">
</g>
</svg>
