<?xml version="1.0" encoding="UTF-8" standalone="no"?>
<svg
		xmlns:dc="http://purl.org/dc/elements/1.1/"
		xmlns:cc="http://creativecommons.org/ns#"
		xmlns:rdf="http://www.w3.org/1999/02/22-rdf-syntax-ns#"
		xmlns="http://www.w3.org/2000/svg"
		xmlns:sodipodi="http://sodipodi.sourceforge.net/DTD/sodipodi-0.dtd"
		xmlns:inkscape="http://www.inkscape.org/namespaces/inkscape"
		height="16"
		viewBox="0 0 16 16"
		width="16"
		class=""
		version="1.1"
		id="svg1564"
		sodipodi:docname="non_bound_sticky_note.svg"
		inkscape:version="0.92.3 (2405546, 2018-03-11)">
  <metadata
     id="metadata1570">
    <rdf:RDF>
      <cc:Work
         rdf:about="">
        <dc:format>image/svg+xml</dc:format>
        <dc:type
           rdf:resource="http://purl.org/dc/dcmitype/StillImage" />
        <dc:title></dc:title>
      </cc:Work>
    </rdf:RDF>
  </metadata>
  <defs
     id="defs1568" />
  <sodipodi:namedview
     pagecolor="#ffffff"
     bordercolor="#666666"
     borderopacity="1"
     objecttolerance="10"
     gridtolerance="10"
     guidetolerance="10"
     inkscape:pageopacity="0"
     inkscape:pageshadow="2"
     inkscape:window-width="1920"
     inkscape:window-height="1030"
     id="namedview1566"
     showgrid="false"
     fit-margin-top="0"
     fit-margin-left="0"
     fit-margin-right="0"
     fit-margin-bottom="0"
     inkscape:zoom="26.3125"
     inkscape:cx="5.3108885"
     inkscape:cy="2.1010721"
     inkscape:window-x="0"
     inkscape:window-y="0"
     inkscape:window-maximized="1"
     inkscape:current-layer="svg1564" />
  <g
     transform="scale(0.03125)"
     id="g1562">
    <path
       d="M 414.21094,97.789062 C 371.7871,55.365234 315.59912,32 256,32 196.40088,32 140.21289,55.365234 97.789062,97.789062 55.365234,140.21289 32,196.40088 32,256 32,315.59912 55.365234,371.7871 97.789062,414.21094 140.21289,456.63476 196.40088,480 256,480 315.59912,480 371.7871,456.63476 414.21094,414.21094 456.63476,371.7871 480,315.59912 480,256 480,196.40088 456.63476,140.21289 414.21094,97.789062 Z M 58.25,256 C 58.25,146.95996 146.95996,58.25 256,58.25 c 49.80664,0 95.36474,18.515136 130.17334,49.01709 l -52.02148,52.02149 C 308.06933,145.19287 281.57666,137.875 256,137.875 c -37.78223,0 -77.72119,15.96192 -115.50683,46.15625 -29.47315,23.55664 -47.420904,47.41406 -48.172858,48.41895 L 74.751953,256 92.32373,279.55322 c 0.748536,1.00147 18.69629,24.85888 48.16944,48.41553 4.7373,3.78369 9.50878,7.33838 14.30419,10.6709 l -47.53027,47.53027 C 76.765136,351.36474 58.25,305.80664 58.25,256 Z M 272.95996,220.48047 C 267.82276,218.0127 262.07031,216.625 256,216.625 c -21.71094,0 -39.375,17.66406 -39.375,39.375 0,6.07031 1.3877,11.82276 3.85547,16.95996 L 201.2749,292.1621 C 194.39453,281.78858 190.375,269.35742 190.375,256 c 0,-36.18604 29.43896,-65.625 65.625,-65.625 13.35742,0 25.78858,4.01953 36.1621,10.8999 z M 256,453.75 c -49.80665,0 -75.14622,-6.80968 -109.95481,-37.31163 L 418.56664,140.72794 C 449.06859,175.53312 453.75,206.19335 453.75,256 453.75,365.04004 365.04004,453.75 256,453.75 Z"
       data-original="#000000"
       class="active-path"
       data-old_color="#000000"
       id="path1558"
       inkscape:connector-curvature="0"
       style="fill:#f5e1e1;stroke-width:0.875"
       sodipodi:nodetypes="sssssssssssccscccccccscssccssccsccss" />
    <path
       d="m 442.05859,229.08203 c -2,-2.67969 -19.03906,-25.07422 -46.69922,-48.80078 l -65.12109,65.12109 c 0.49219,3.46485 0.76172,7 0.76172,10.59766 0,41.35547 -33.64453,75 -75,75 -3.59766,0 -7.13281,-0.26953 -10.59766,-0.76172 l -49.55468,49.55078 C 216.10156,387.19141 236.30859,391 256,391 c 43.19531,0 88.6875,-18.25391 131.55469,-52.78516 32.25,-25.98437 52.32031,-52.375 54.50781,-55.30078 L 462.14063,256 Z m 0,0"
       data-original="#000000"
       class="active-path"
       data-old_color="#000000"
       id="path1560"
       inkscape:connector-curvature="0"
       style="fill:#f5e1e1" />
  </g>
</svg>
