<?xml version="1.0" encoding="UTF-8" standalone="no"?>
<svg
        xmlns:dc="http://purl.org/dc/elements/1.1/"
        xmlns:cc="http://creativecommons.org/ns#"
        xmlns:rdf="http://www.w3.org/1999/02/22-rdf-syntax-ns#"
        xmlns="http://www.w3.org/2000/svg"
        xmlns:sodipodi="http://sodipodi.sourceforge.net/DTD/sodipodi-0.dtd"
        xmlns:inkscape="http://www.inkscape.org/namespaces/inkscape"
        id="Glyph"
        height="13"
        viewBox="0 0 13 13"
        width="13"
        version="1.1"
        sodipodi:docname="note_13.svg"
        inkscape:version="0.92.3 (2405546, 2018-03-11)">
  <metadata
     id="metadata13">
    <rdf:RDF>
      <cc:Work
         rdf:about="">
        <dc:format>image/svg+xml</dc:format>
        <dc:type
           rdf:resource="http://purl.org/dc/dcmitype/StillImage" />
        <dc:title></dc:title>
      </cc:Work>
    </rdf:RDF>
  </metadata>
  <defs
     id="defs11" />
  <sodipodi:namedview
     pagecolor="#ffffff"
     bordercolor="#666666"
     borderopacity="1"
     objecttolerance="10"
     gridtolerance="10"
     guidetolerance="10"
     inkscape:pageopacity="0"
     inkscape:pageshadow="2"
     inkscape:window-width="1920"
     inkscape:window-height="1030"
     id="namedview9"
     showgrid="false"
     fit-margin-top="0"
     fit-margin-left="0"
     fit-margin-right="0"
     fit-margin-bottom="0"
     inkscape:zoom="29.5"
     inkscape:cx="4.2885351"
     inkscape:cy="0.78898511"
     inkscape:window-x="0"
     inkscape:window-y="0"
     inkscape:window-maximized="1"
     inkscape:current-layer="Glyph" />
  <path
     d="m 0,13 h 9.88 v -2.55357 a 0.26,0.23214286 0 0 1 0.26,-0.23214 H 13 V 0.92857 H 9.41249 L 9.83632,1.49622 A 0.26,0.23214286 0 0 1 9.62,1.85714 H 3.38 A 0.26,0.23214286 0 0 1 3.13859,1.53879 L 3.41198,0.92857 H 0 Z M 4.42,3.48214 h 4.16 a 0.2600024,0.232145 0 0 1 0,0.46429 H 4.42 a 0.2600024,0.232145 0 0 1 0,-0.46429 z M 1.82,4.875 h 9.36 a 0.2600024,0.232145 0 0 1 0,0.46429 H 1.82 a 0.2600024,0.232145 0 0 1 0,-0.46429 z m 0,1.39286 h 9.36 a 0.26,0.23214286 0 0 1 0,0.46428 H 1.82 a 0.26,0.23214286 0 0 1 0,-0.46428 z m 0,1.39285 h 9.36 a 0.2600024,0.232145 0 0 1 0,0.46429 H 1.82 a 0.2600024,0.232145 0 0 1 0,-0.46429 z m 0,1.39286 h 5.46 a 0.2600024,0.232145 0 0 1 0,0.46429 H 1.82 a 0.2600024,0.232145 0 0 1 0,-0.46429 z"
     id="path2"
     inkscape:connector-curvature="0"
     style="stroke-width:0.03070961" />
  <path
     d="M 9.23598,0 H 3.86581 l 0.25051,0.3355 a 0.26,0.23214286 0 0 1 0.0251,0.215 L 3.76403,1.39286 H 9.1342 L 8.88369,1.05735 A 0.26,0.23214286 0 0 1 8.85859,0.84236 Z"
     id="path4"
     inkscape:connector-curvature="0"
     style="stroke-width:0.03070961" />
  <path
     d="M 12.63233,10.67857 H 10.4 v 1.99315 z"
     id="path6"
     inkscape:connector-curvature="0"
     style="stroke-width:0.03070961" />
  <path
     style="fill:#afb1b3;fill-opacity:1;fill-rule:evenodd;stroke:none;stroke-width:0.03389831"
     d="M 0.03090793,6.9533878 V 0.93643859 H 1.709329 3.38775 L 3.3400392,1.0466081 C 3.3137982,1.1072013 3.2525765,1.2449244 3.203991,1.3526594 3.0967422,1.5904761 3.0919408,1.7180272 3.1869988,1.8040661 c 0.068908,0.06237 0.1786068,0.064914 3.2118644,0.074475 1.7272858,0.00544 3.1909465,7.8e-4 3.2525797,-0.010365 0.1388586,-0.02511 0.2438718,-0.1258235 0.2438718,-0.2338863 0,-0.046529 -0.084758,-0.1963737 -0.1965352,-0.3474576 C 9.5906849,1.1407256 9.4906324,1.0021166 9.4764398,0.97881147 9.4559256,0.94512534 9.8124147,0.93643859 11.215348,0.93643859 h 1.764713 V 5.5635572 10.190676 h -1.442362 c -1.517327,0 -1.5990246,0.0076 -1.6552256,0.154061 -0.011581,0.03018 -0.021057,0.633287 -0.021057,1.340237 v 1.285363 H 4.9461622 0.03090793 Z M 7.3824974,9.5091444 C 7.5701544,9.4437267 7.6128442,9.2610559 7.4731266,9.1213386 L 7.3899218,9.0381335 H 4.5624439 c -2.8091544,0 -2.8280566,4.543e-4 -2.916795,0.070257 -0.1586581,0.1248007 -0.1022217,0.3652725 0.097123,0.4138366 0.1512453,0.036846 5.5323068,0.024363 5.6397255,-0.013083 z M 11.259323,8.1212071 c 0.205753,-0.057142 0.259129,-0.242679 0.112109,-0.389699 L 11.288227,7.648303 H 6.5115964 1.7349661 L 1.6456489,7.71856 c -0.1572351,0.1236813 -0.1044886,0.3419583 0.097163,0.4020813 0.1490038,0.044426 9.3566091,0.044973 9.5165111,5.658e-4 z m 0.116858,-1.4618637 c 0.10145,-0.095308 0.09969,-0.2132295 -0.0047,-0.3176658 l -0.08321,-0.083205 H 6.4964679 c -4.7754195,0 -4.7920122,2.356e-4 -4.8659477,0.069117 -0.09359,0.087192 -0.096623,0.2474312 -0.00639,0.3376624 0.067159,0.067159 0.1129943,0.067797 4.8706966,0.067797 h 4.8029002 z m 0,-1.3898306 c 0.09848,-0.09252 0.100371,-0.2206315 0.0047,-0.3224149 L 11.307226,4.868642 H 6.4995754 c -4.7624528,0 -4.8082879,6.373e-4 -4.8754471,0.067797 -0.037665,0.037665 -0.067797,0.1129942 -0.067797,0.1694915 0,0.056497 0.030132,0.1318268 0.067797,0.1694916 0.067159,0.067159 0.1129943,0.067797 4.8706966,0.067797 H 11.297725 Z M 8.7766707,3.8855911 c 0.037665,-0.037665 0.067797,-0.1129943 0.067797,-0.1694915 0,-0.056497 -0.030132,-0.1318267 -0.067797,-0.1694915 -0.066403,-0.066403 -0.1129943,-0.067797 -2.2674312,-0.067797 -2.0871705,0 -2.2035814,0.0032 -2.276836,0.062514 -0.052211,0.042278 -0.077202,0.098854 -0.077202,0.174774 0,0.07592 0.024991,0.1324963 0.077202,0.174774 0.073255,0.059318 0.1896655,0.062514 2.276836,0.062514 2.1544369,0 2.2010278,-0.00139 2.2674312,-0.067796 z"
     id="path820"
     inkscape:connector-curvature="0" />
  <path
     style="fill:#afb1b3;fill-opacity:1;fill-rule:evenodd;stroke:none;stroke-width:0.03389831"
     d="M 3.8394708,1.2669471 C 3.8651892,1.2063538 3.9492923,1.0174747 4.0263664,0.84721564 4.1034405,0.67695655 4.1665012,0.49991286 4.1665012,0.45378519 c 0,-0.0461277 -0.05339,-0.15379103 -0.1186441,-0.23925191 C 3.9826029,0.1290724 3.929213,0.05060762 3.929213,0.0401671 c 0,-0.01044051 1.1901406,-0.01898275 2.6447568,-0.01898275 H 9.2187266 L 9.1539371,0.14830299 C 9.1183032,0.21821824 9.025372,0.42475431 8.9474239,0.60727204 L 8.8056995,0.93912242 8.8931435,1.0818483 c 0.048094,0.078499 0.1120672,0.1770479 0.1421624,0.2189971 l 0.054719,0.076271 H 6.4413673 3.79271 Z"
     id="path822"
     inkscape:connector-curvature="0" />
  <path
     style="fill:#afb1b3;fill-opacity:1;fill-rule:evenodd;stroke:none;stroke-width:0.03389831"
     d="M 10.403789,11.671594 V 10.69915 h 1.09201 c 0.913577,0 1.083899,0.0074 1.042373,0.04532 -0.0273,0.02492 -0.476756,0.424036 -0.998789,0.886918 -0.522034,0.462883 -0.991102,0.88009 -1.042373,0.927129 l -0.09322,0.08553 z"
     id="path824"
     inkscape:connector-curvature="0" />
  <path
     style="fill:#3c3f41;fill-opacity:1;fill-rule:evenodd;stroke:none;stroke-width:0.03389831"
     d="M 4.2367581,3.8301722 C 4.1489308,3.7185178 4.148417,3.6663871 4.2342978,3.5805064 c 0.066403,-0.066403 0.1129943,-0.067797 2.2659326,-0.067797 2.0864677,0 2.200986,0.00315 2.2542372,0.061991 0.074091,0.08187 0.071297,0.218834 -0.00589,0.2886872 -0.056337,0.050984 -0.2617285,0.056101 -2.251777,0.056101 H 4.3070151 Z"
     id="path826"
     inkscape:connector-curvature="0" />
  <path
     style="fill:#3c3f41;fill-opacity:1;fill-rule:evenodd;stroke:none;stroke-width:0.03389831"
     d="m 1.6463312,5.2473287 c -0.074091,-0.08187 -0.071297,-0.218834 0.00589,-0.2886871 0.057067,-0.051645 0.4421009,-0.056101 4.8474576,-0.056101 4.7402692,0 4.7861072,6.403e-4 4.8532632,0.067797 0.03729,0.037288 0.0678,0.098305 0.0678,0.1355932 0,0.037288 -0.03051,0.098305 -0.0678,0.1355932 -0.06716,0.067157 -0.112994,0.067797 -4.859153,0.067797 -4.5987377,0 -4.7936118,-0.00249 -4.8474578,-0.061991 z"
     id="path828"
     inkscape:connector-curvature="0" />
  <path
     style="fill:#3c3f41;fill-opacity:1;fill-rule:evenodd;stroke:none;stroke-width:0.03389831"
     d="M 2.5244077,6.7079117 C 1.6335082,6.6969136 1.59023,6.6869308 1.59023,6.492429 c 0,-0.2133157 -0.3262255,-0.2000582 4.9227969,-0.2000582 4.7269211,0 4.7727601,6.421e-4 4.8399151,0.067797 0.08516,0.085165 0.08612,0.1732458 0.003,0.2759056 l -0.0648,0.080027 -3.977577,9.155e-4 c -2.1876668,5.036e-4 -4.3427896,-0.00359 -4.7891613,-0.0091 z"
     id="path830"
     inkscape:connector-curvature="0" />
  <path
     style="fill:#3c3f41;fill-opacity:1;fill-rule:evenodd;stroke:none;stroke-width:0.03389831"
     d="M 1.7597215,8.0990135 C 1.5840409,8.033785 1.5311152,7.8291462 1.6655692,7.7349709 c 0.067322,-0.047154 0.5831811,-0.05277 4.8474577,-0.05277 4.7269211,0 4.7727601,6.421e-4 4.8399151,0.067797 0.08784,0.087842 0.08635,0.2099876 -0.0036,0.2913564 -0.06938,0.062792 -0.202099,0.064741 -4.8050848,0.070557 -2.6035533,0.00329 -4.7566146,-0.00251 -4.7845807,-0.012898 z"
     id="path832"
     inkscape:connector-curvature="0" />
  <path
     style="fill:#3c3f41;fill-opacity:1;fill-rule:evenodd;stroke:none;stroke-width:0.03389831"
     d="M 1.708874,9.4725262 C 1.6166133,9.4197689 1.5913594,9.3762292 1.590749,9.2688693 1.5895836,9.0638757 1.4666539,9.0720318 4.5574823,9.0720318 c 2.7876555,0 2.8173358,7.097e-4 2.8907626,0.069117 0.093751,0.087342 0.094921,0.2066947 0.00284,0.2900358 -0.068798,0.06227 -0.1713733,0.064853 -2.8728814,0.072343 -2.0528601,0.00569 -2.8196548,-0.00259 -2.8693336,-0.031001 z"
     id="path836"
     inkscape:connector-curvature="0" />
</svg>
