<?xml version="1.0" encoding="UTF-8" standalone="no"?>
<svg
        xmlns:dc="http://purl.org/dc/elements/1.1/"
        xmlns:cc="http://creativecommons.org/ns#"
        xmlns:rdf="http://www.w3.org/1999/02/22-rdf-syntax-ns#"
        xmlns="http://www.w3.org/2000/svg"
        xmlns:sodipodi="http://sodipodi.sourceforge.net/DTD/sodipodi-0.dtd"
        xmlns:inkscape="http://www.inkscape.org/namespaces/inkscape"
        id="Filled"
        height="12"
        viewBox="0 0 12 12"
        width="12"
        version="1.1"
        sodipodi:docname="note_gutter.svg"
        inkscape:version="0.92.3 (2405546, 2018-03-11)">
  <metadata
     id="metadata25">
    <rdf:RDF>
      <cc:Work
         rdf:about="">
        <dc:format>image/svg+xml</dc:format>
        <dc:type
           rdf:resource="http://purl.org/dc/dcmitype/StillImage" />
        <dc:title></dc:title>
      </cc:Work>
    </rdf:RDF>
  </metadata>
  <defs
     id="defs23" />
  <sodipodi:namedview
     pagecolor="#ffffff"
     bordercolor="#666666"
     borderopacity="1"
     objecttolerance="10"
     gridtolerance="10"
     guidetolerance="10"
     inkscape:pageopacity="0"
     inkscape:pageshadow="2"
     inkscape:window-width="1920"
     inkscape:window-height="1030"
     id="namedview21"
     showgrid="false"
     fit-margin-top="0"
     fit-margin-left="0"
     fit-margin-right="0"
     fit-margin-bottom="0"
     inkscape:zoom="83.4386"
     inkscape:cx="11.506426"
     inkscape:cy="3.5526484"
     inkscape:window-x="0"
     inkscape:window-y="0"
     inkscape:window-maximized="1"
     inkscape:current-layer="Filled" />
  <path
     d="M 9.11111,11.8 H 0.22222 V 1 h 11.55556 v 8.4 z"
     id="path2"
     inkscape:connector-curvature="0"
     style="fill:#fbe36a;stroke-width:0.02635231" />
  <path
     d="m 0,1 v 10.8 c 0,0.110456 0.09949092,0.199999 0.22222,0.2 h 8.88889 c 0.058942,-4e-6 -0.2045097,0.203371 -0.1628376,0.165849 L 12.038672,9.1726312 C 12.080172,9.1350702 11.99963,9.45297 11.99942,9.4 H 12 V 1 C 12,0.88954383 11.900509,0.8000011 11.77778,0.8 7.9263201,0.81651111 4.0744472,0.8 0.22222,0.8 0.09949092,0.8000011 0,0.88954383 0,1 Z M 8.4689232,11.486672 8.4350249,8.9220339 11.4447,8.8711864 Z M 0.44444,1.2 h 2.91623 c 0.4695642,7.132e-4 3.4269105,0.014751 5.12864,0 h 3.06625 l 0.0339,7.0677966 c -1.258818,0.013972 -2.5235734,0.038646 -3.6406457,0.065611 L 7.9227883,11.515254 0.44444,11.6 Z"
     id="path8"
     inkscape:connector-curvature="0"
     style="stroke-width:0.02635231"
     sodipodi:nodetypes="ssccccccsccsccccccccccccc" />
  <path
     style="fill:#f7cc38;fill-opacity:1;fill-rule:evenodd;stroke:none;stroke-width:0.01694915"
     d="M 8.4665567,10.575748 C 8.4607327,10.084655 8.4513557,9.5131478 8.445719,9.3057326 L 8.4354705,8.9286139 8.551764,8.9282847 c 0.063961,-1.811e-4 0.7337337,-0.011343 1.488383,-0.024803 0.754649,-0.013461 1.373344,-0.022847 1.374878,-0.020857 0.0015,0.00199 -0.405561,0.3620915 -0.904656,0.8002271 C 10.011275,10.120987 9.3496252,10.702028 9.0400358,10.974053 L 8.477146,11.468645 Z"
     id="path832"
     inkscape:connector-curvature="0" />
</svg>
