<?xml version="1.0" encoding="UTF-8" standalone="no"?>
<!-- Generator: Adobe Illustrator 19.0.0, SVG Export Plug-In . SVG Version: 6.00 Build 0)  -->

<svg
		xmlns:dc="http://purl.org/dc/elements/1.1/"
		xmlns:cc="http://creativecommons.org/ns#"
		xmlns:rdf="http://www.w3.org/1999/02/22-rdf-syntax-ns#"
		xmlns="http://www.w3.org/2000/svg"
		xmlns:sodipodi="http://sodipodi.sourceforge.net/DTD/sodipodi-0.dtd"
		xmlns:inkscape="http://www.inkscape.org/namespaces/inkscape"
		version="1.1"
		id="Capa_1"
		x="0px"
		y="0px"
		viewBox="0 0 16.875 24"
		xml:space="preserve"
		sodipodi:docname="pin.svg"
		width="16.875"
		height="24"
		inkscape:version="0.92.3 (2405546, 2018-03-11)"><metadata
   id="metadata49"><rdf:RDF><cc:Work
       rdf:about=""><dc:format>image/svg+xml</dc:format><dc:type
         rdf:resource="http://purl.org/dc/dcmitype/StillImage" /><dc:title></dc:title></cc:Work></rdf:RDF></metadata><defs
   id="defs47" /><sodipodi:namedview
   pagecolor="#ffffff"
   bordercolor="#666666"
   borderopacity="1"
   objecttolerance="10"
   gridtolerance="10"
   guidetolerance="10"
   inkscape:pageopacity="0"
   inkscape:pageshadow="2"
   inkscape:window-width="1920"
   inkscape:window-height="1030"
   id="namedview45"
   showgrid="false"
   inkscape:zoom="14.75"
   inkscape:cx="28.797631"
   inkscape:cy="10.044692"
   inkscape:window-x="0"
   inkscape:window-y="0"
   inkscape:window-maximized="1"
   inkscape:current-layer="Capa_1"
   fit-margin-top="0"
   fit-margin-left="0"
   fit-margin-right="0"
   fit-margin-bottom="0" />
<g
   id="g6"
   transform="matrix(0.046875,0,0,0.046875,-3.5625,0)">
	<g
   id="g4">
		<path
   d="M 256,0 C 156.748,0 76,80.748 76,180 c 0,33.534 9.289,66.26 26.869,94.652 l 142.885,230.257 c 2.737,4.411 7.559,7.091 12.745,7.091 0.04,0 0.079,0 0.119,0 5.231,-0.041 10.063,-2.804 12.75,-7.292 L 410.611,272.22 C 427.221,244.428 436,212.539 436,180 436,80.748 355.252,0 256,0 Z M 384.866,256.818 258.272,468.186 128.367,258.846 C 113.734,235.214 105.8,207.95 105.8,180 105.8,97.29 173.29,29.8 256,29.8 c 82.71,0 150.1,67.49 150.1,150.2 0,27.121 -7.411,53.688 -21.234,76.818 z"
   id="path2"
   inkscape:connector-curvature="0" />
	</g>
</g>
<g
   id="g12"
   transform="matrix(0.046875,0,0,0.046875,-3.5625,0)">
	<g
   id="g10">
		<path
   d="m 256,90 c -49.626,0 -90,40.374 -90,90 0,49.309 39.717,90 90,90 50.903,0 90,-41.233 90,-90 0,-49.626 -40.374,-90 -90,-90 z m 0,150.2 c -33.257,0 -60.2,-27.033 -60.2,-60.2 0,-33.084 27.116,-60.2 60.2,-60.2 33.084,0 60.1,27.116 60.1,60.2 0,32.683 -26.316,60.2 -60.1,60.2 z"
   id="path8"
   inkscape:connector-curvature="0" />
	</g>
</g>
<g
   id="g14"
   transform="matrix(0.046875,0,0,0.046875,-3.5625,0)">
</g>
<g
   id="g16"
   transform="matrix(0.046875,0,0,0.046875,-3.5625,0)">
</g>
<g
   id="g18"
   transform="matrix(0.046875,0,0,0.046875,-3.5625,0)">
</g>
<g
   id="g20"
   transform="matrix(0.046875,0,0,0.046875,-3.5625,0)">
</g>
<g
   id="g22"
   transform="matrix(0.046875,0,0,0.046875,-3.5625,0)">
</g>
<g
   id="g24"
   transform="matrix(0.046875,0,0,0.046875,-3.5625,0)">
</g>
<g
   id="g26"
   transform="matrix(0.046875,0,0,0.046875,-3.5625,0)">
</g>
<g
   id="g28"
   transform="matrix(0.046875,0,0,0.046875,-3.5625,0)">
</g>
<g
   id="g30"
   transform="matrix(0.046875,0,0,0.046875,-3.5625,0)">
</g>
<g
   id="g32"
   transform="matrix(0.046875,0,0,0.046875,-3.5625,0)">
</g>
<g
   id="g34"
   transform="matrix(0.046875,0,0,0.046875,-3.5625,0)">
</g>
<g
   id="g36"
   transform="matrix(0.046875,0,0,0.046875,-3.5625,0)">
</g>
<g
   id="g38"
   transform="matrix(0.046875,0,0,0.046875,-3.5625,0)">
</g>
<g
   id="g40"
   transform="matrix(0.046875,0,0,0.046875,-3.5625,0)">
</g>
<g
   id="g42"
   transform="matrix(0.046875,0,0,0.046875,-3.5625,0)">
</g>
<path
   style="fill:#3f3f3f;fill-opacity:1;fill-rule:evenodd;stroke:none;stroke-width:0.02396972"
   d="M 8.2564879,23.912913 C 8.1766014,23.87249 8.0885098,23.814962 8.0607287,23.785075 8.0159115,23.73686 1.4631194,13.193923 1.1699871,12.698403 0.84234207,12.144543 0.5266391,11.411296 0.34869553,10.790884 -0.38475618,8.233656 0.10642505,5.5195759 1.6841647,3.4115902 3.0971578,1.523719 5.1618008,0.33687155 7.5148564,0.05985257 8.1354392,-0.01320698 9.0382316,0.00688373 9.7111303,0.10872836 12.111799,0.47207473 14.287747,1.9068318 15.587534,3.9834593 c 0.223501,0.3570808 0.613183,1.1515713 0.756453,1.5422711 0.38924,1.0614579 0.55442,2.146589 0.503942,3.3105821 -0.05493,1.2665725 -0.402734,2.5121685 -1.014664,3.6337955 C 15.534042,13.018563 9.1221053,23.690971 9.0415076,23.774712 8.9086631,23.912736 8.789936,23.964793 8.581509,23.9764 8.4179065,23.9855 8.3886711,23.9798 8.2564879,23.91291 Z m 3.2905401,-6.953625 c 1.621674,-2.709178 3.003752,-5.025323 3.071285,-5.14699 0.176764,-0.318456 0.344416,-0.700527 0.479029,-1.091682 C 15.975261,8.1695744 15.322043,5.3577942 13.408286,3.4500587 11.511911,1.5596507 8.7437152,0.90491893 6.2204914,1.7500064 5.1478742,2.1092513 4.2457763,2.6677726 3.4519886,3.464086 1.54906,5.3730694 0.89972014,8.1608427 1.7658259,10.70319 c 0.1224178,0.359343 0.3424017,0.850383 0.5196033,1.159841 0.1195456,0.208769 5.8286434,9.425099 6.1694156,9.959432 0.068789,0.10786 0.087424,0.123669 0.1130273,0.09588 0.016862,-0.0183 1.357482,-2.249877 2.9791559,-4.959055 z"
   id="path860"
   inkscape:connector-curvature="0" /><path
   style="fill:#3f3f3f;fill-opacity:1;fill-rule:evenodd;stroke:none;stroke-width:0.02396972"
   d="M 7.9582962,12.619528 C 6.5007767,12.438539 5.2576151,11.546668 4.6356373,10.235781 3.6668643,8.1939837 4.5027,5.7394049 6.5201129,4.7016855 7.336648,4.2816751 8.2647596,4.1377397 9.1567823,4.29278 9.7199296,4.390659 10.414578,4.6805981 10.86591,5.0061521 c 1.512886,1.0912714 2.143967,3.0098646 1.563265,4.7525915 -0.492085,1.4767804 -1.740122,2.5541814 -3.2723927,2.8249794 -0.2690065,0.04754 -0.9420494,0.06765 -1.1984861,0.0358 z M 8.7202795,11.253307 C 10.338722,11.078389 11.472079,9.6145869 11.230416,8.0113071 11.009388,6.5449318 9.6344468,5.4665758 8.179973,5.618868 6.8830406,5.7546646 5.8495739,6.7179318 5.6445343,7.9820839 5.3862448,9.5745438 6.5176092,11.06718 8.1223737,11.251158 c 0.2625373,0.0301 0.3368343,0.03037 0.5979058,0.0022 z"
   id="path862"
   inkscape:connector-curvature="0" /></svg>
