<?xml version="1.0" encoding="UTF-8" standalone="no"?>
<!-- Generator: Adobe Illustrator 19.0.0, SVG Export Plug-In . SVG Version: 6.00 Build 0)  -->

<svg
        xmlns:dc="http://purl.org/dc/elements/1.1/"
        xmlns:cc="http://creativecommons.org/ns#"
        xmlns:rdf="http://www.w3.org/1999/02/22-rdf-syntax-ns#"
        xmlns="http://www.w3.org/2000/svg"
        xmlns:sodipodi="http://sodipodi.sourceforge.net/DTD/sodipodi-0.dtd"
        xmlns:inkscape="http://www.inkscape.org/namespaces/inkscape"
        version="1.1"
        id="Capa_1"
        x="0px"
        y="0px"
        viewBox="0 0 16.875 24"
        xml:space="preserve"
        sodipodi:docname="pin_pressed.svg"
        width="16.875"
        height="24"
        inkscape:version="0.92.3 (2405546, 2018-03-11)"><metadata
   id="metadata49"><rdf:RDF><cc:Work
       rdf:about=""><dc:format>image/svg+xml</dc:format><dc:type
         rdf:resource="http://purl.org/dc/dcmitype/StillImage" /><dc:title></dc:title></cc:Work></rdf:RDF></metadata><defs
   id="defs47" /><sodipodi:namedview
   pagecolor="#ffffff"
   bordercolor="#666666"
   borderopacity="1"
   objecttolerance="10"
   gridtolerance="10"
   guidetolerance="10"
   inkscape:pageopacity="0"
   inkscape:pageshadow="2"
   inkscape:window-width="1920"
   inkscape:window-height="1030"
   id="namedview45"
   showgrid="false"
   inkscape:zoom="14.75"
   inkscape:cx="28.797631"
   inkscape:cy="10.044692"
   inkscape:window-x="0"
   inkscape:window-y="0"
   inkscape:window-maximized="1"
   inkscape:current-layer="Capa_1"
   fit-margin-top="0"
   fit-margin-left="0"
   fit-margin-right="0"
   fit-margin-bottom="0" />
<g
   id="g6"
   transform="matrix(0.046875,0,0,0.046875,-3.5625,0)">
	<g
   id="g4">
		<path
   d="M 256,0 C 156.748,0 76,80.748 76,180 c 0,33.534 9.289,66.26 26.869,94.652 l 142.885,230.257 c 2.737,4.411 7.559,7.091 12.745,7.091 0.04,0 0.079,0 0.119,0 5.231,-0.041 10.063,-2.804 12.75,-7.292 L 410.611,272.22 C 427.221,244.428 436,212.539 436,180 436,80.748 355.252,0 256,0 Z M 384.866,256.818 258.272,468.186 128.367,258.846 C 113.734,235.214 105.8,207.95 105.8,180 105.8,97.29 173.29,29.8 256,29.8 c 82.71,0 150.1,67.49 150.1,150.2 0,27.121 -7.411,53.688 -21.234,76.818 z"
   id="path2"
   inkscape:connector-curvature="0" />
	</g>
</g>
<g
   id="g12"
   transform="matrix(0.046875,0,0,0.046875,-3.5625,0)">
	<g
   id="g10">
		<path
   d="m 256,90 c -49.626,0 -90,40.374 -90,90 0,49.309 39.717,90 90,90 50.903,0 90,-41.233 90,-90 0,-49.626 -40.374,-90 -90,-90 z m 0,150.2 c -33.257,0 -60.2,-27.033 -60.2,-60.2 0,-33.084 27.116,-60.2 60.2,-60.2 33.084,0 60.1,27.116 60.1,60.2 0,32.683 -26.316,60.2 -60.1,60.2 z"
   id="path8"
   inkscape:connector-curvature="0" />
	</g>
</g>
<g
   id="g14"
   transform="matrix(0.046875,0,0,0.046875,-3.5625,0)">
</g>
<g
   id="g16"
   transform="matrix(0.046875,0,0,0.046875,-3.5625,0)">
</g>
<g
   id="g18"
   transform="matrix(0.046875,0,0,0.046875,-3.5625,0)">
</g>
<g
   id="g20"
   transform="matrix(0.046875,0,0,0.046875,-3.5625,0)">
</g>
<g
   id="g22"
   transform="matrix(0.046875,0,0,0.046875,-3.5625,0)">
</g>
<g
   id="g24"
   transform="matrix(0.046875,0,0,0.046875,-3.5625,0)">
</g>
<g
   id="g26"
   transform="matrix(0.046875,0,0,0.046875,-3.5625,0)">
</g>
<g
   id="g28"
   transform="matrix(0.046875,0,0,0.046875,-3.5625,0)">
</g>
<g
   id="g30"
   transform="matrix(0.046875,0,0,0.046875,-3.5625,0)">
</g>
<g
   id="g32"
   transform="matrix(0.046875,0,0,0.046875,-3.5625,0)">
</g>
<g
   id="g34"
   transform="matrix(0.046875,0,0,0.046875,-3.5625,0)">
</g>
<g
   id="g36"
   transform="matrix(0.046875,0,0,0.046875,-3.5625,0)">
</g>
<g
   id="g38"
   transform="matrix(0.046875,0,0,0.046875,-3.5625,0)">
</g>
<g
   id="g40"
   transform="matrix(0.046875,0,0,0.046875,-3.5625,0)">
</g>
<g
   id="g42"
   transform="matrix(0.046875,0,0,0.046875,-3.5625,0)">
</g>
<path
   style="fill:#3f3f3f;fill-opacity:1;fill-rule:evenodd;stroke:none;stroke-width:0.02396972"
   d="M 8.2564879,23.912913 C 8.1766014,23.87249 8.0885098,23.814962 8.0607287,23.785075 8.0159115,23.73686 1.4631194,13.193923 1.1699871,12.698403 0.84234207,12.144543 0.5266391,11.411296 0.34869553,10.790884 -0.38475618,8.233656 0.10642505,5.5195759 1.6841647,3.4115902 3.0971578,1.523719 5.1618008,0.33687155 7.5148564,0.05985257 8.1354392,-0.01320698 9.0382316,0.00688373 9.7111303,0.10872836 12.111799,0.47207473 14.287747,1.9068318 15.587534,3.9834593 c 0.223501,0.3570808 0.613183,1.1515713 0.756453,1.5422711 0.38924,1.0614579 0.55442,2.146589 0.503942,3.3105821 -0.05493,1.2665725 -0.402734,2.5121685 -1.014664,3.6337955 C 15.534042,13.018563 9.1221053,23.690971 9.0415076,23.774712 8.9086631,23.912736 8.789936,23.964793 8.581509,23.9764 8.4179065,23.9855 8.3886711,23.9798 8.2564879,23.91291 Z m 3.2905401,-6.953625 c 1.621674,-2.709178 3.003752,-5.025323 3.071285,-5.14699 0.176764,-0.318456 0.344416,-0.700527 0.479029,-1.091682 C 15.975261,8.1695744 15.322043,5.3577942 13.408286,3.4500587 11.511911,1.5596507 8.7437152,0.90491893 6.2204914,1.7500064 5.1478742,2.1092513 4.2457763,2.6677726 3.4519886,3.464086 1.54906,5.3730694 0.89972014,8.1608427 1.7658259,10.70319 c 0.1224178,0.359343 0.3424017,0.850383 0.5196033,1.159841 0.1195456,0.208769 5.8286434,9.425099 6.1694156,9.959432 0.068789,0.10786 0.087424,0.123669 0.1130273,0.09588 0.016862,-0.0183 1.357482,-2.249877 2.9791559,-4.959055 z"
   id="path860"
   inkscape:connector-curvature="0" /><path
   style="fill:#242424;fill-opacity:1;fill-rule:evenodd;stroke:none;stroke-width:0.02396972"
   d="M 7.9582962,12.619528 C 6.5007767,12.438539 5.2576151,11.546668 4.6356373,10.235781 3.6668643,8.1939837 4.5027,5.7394049 6.5201129,4.7016855 7.336648,4.2816751 8.2647596,4.1377397 9.1567823,4.29278 9.7199296,4.390659 10.414578,4.6805981 10.86591,5.0061521 c 1.512886,1.0912714 2.143967,3.0098646 1.563265,4.7525915 -0.492085,1.4767804 -1.740122,2.5541814 -3.2723927,2.8249794 -0.2690065,0.04754 -0.9420494,0.06765 -1.1984861,0.0358 z M 8.7202795,11.253307 C 10.338722,11.078389 11.472079,9.6145869 11.230416,8.0113071 11.009388,6.5449318 9.6344468,5.4665758 8.179973,5.618868 6.8830406,5.7546646 5.8495739,6.7179318 5.6445343,7.9820839 5.3862448,9.5745438 6.5176092,11.06718 8.1223737,11.251158 c 0.2625373,0.0301 0.3368343,0.03037 0.5979058,0.0022 z"
   id="path862"
   inkscape:connector-curvature="0" /><path
   style="fill:#242424;fill-opacity:1;fill-rule:evenodd;stroke:none;stroke-width:0.06779661"
   d="M 8.3907207,23.967414 C 8.2252719,23.925334 8.0650943,23.76804 7.9054719,23.490901 7.8356733,23.369715 7.7546346,23.270562 7.7253858,23.270562 c -0.029248,0 -0.053179,-0.04358 -0.053179,-0.09685 0,-0.05327 -0.038136,-0.137726 -0.084746,-0.187683 C 7.5408509,22.936071 7.443996,22.788976 7.3722279,22.659151 7.3004597,22.529326 7.2241885,22.40785 7.2027363,22.389206 7.1812841,22.370562 7.1050129,22.248528 7.0332448,22.11802 6.9614767,21.987511 6.884914,21.865477 6.8631045,21.846833 6.841295,21.828189 6.7634156,21.698528 6.6900387,21.558698 6.6166622,21.418867 6.5363633,21.30446 6.5115969,21.30446 c -0.024766,0 -0.064172,-0.07627 -0.087569,-0.169491 -0.023397,-0.09322 -0.072467,-0.169492 -0.1090446,-0.169492 -0.036578,0 -0.066505,-0.04576 -0.066505,-0.101694 0,-0.05593 -0.02695,-0.101695 -0.059889,-0.101695 -0.032939,0 -0.077816,-0.05339 -0.099727,-0.118644 -0.043338,-0.129071 -0.1300892,-0.272767 -0.3656375,-0.605647 -0.083992,-0.118698 -0.1527126,-0.244623 -0.1527126,-0.279833 0,-0.03521 -0.042952,-0.09967 -0.09545,-0.143236 C 5.4225647,19.571159 5.3301958,19.437763 5.269798,19.318291 5.1475253,19.076427 5.0119401,18.847583 4.9603424,18.795986 4.9416984,18.777342 4.8901628,18.701071 4.8458189,18.626494 4.801475,18.551918 4.6031699,18.231863 4.4051409,17.91526 3.8840628,17.082177 3.881803,17.078347 3.8348746,16.948528 c -0.023589,-0.06525 -0.062902,-0.118644 -0.087361,-0.118644 -0.02446,0 -0.103997,-0.114407 -0.1767495,-0.254237 C 3.4980115,16.435816 3.3690399,16.227004 3.2841604,16.11162 3.1992809,15.996236 3.1298339,15.879794 3.1298339,15.85286 c 0,-0.02693 -0.068721,-0.146089 -0.1527126,-0.264787 -0.2355482,-0.33288 -0.3222992,-0.476576 -0.3656375,-0.605646 -0.02191,-0.06525 -0.063229,-0.118644 -0.091819,-0.118644 -0.02859,0 -0.071282,-0.05339 -0.094871,-0.118645 C 2.3784295,14.616882 2.2911148,14.466668 2.0789865,14.15022 1.8274232,13.774946 1.770104,13.677755 1.7301279,13.558698 c -0.02191,-0.06525 -0.063229,-0.118644 -0.091819,-0.118644 -0.02859,0 -0.070439,-0.05339 -0.092998,-0.118644 C 1.5227521,13.256155 1.4438946,13.11124 1.3700718,12.999376 1.2962491,12.887511 1.1885731,12.70446 1.1307918,12.592596 1.0730106,12.480732 0.98435353,12.312935 0.93377604,12.219715 0.88319855,12.126494 0.7955138,11.943444 0.73892112,11.812935 0.68232838,11.682427 0.5897658,11.468867 0.53322651,11.338359 0.43940274,11.121787 0.26082999,10.470671 0.17994731,10.050223 0.09381887,9.6025066 0.057859,9.1396693 0.05616305,8.4570028 0.05400187,7.5870652 0.10139811,7.116394 0.25244137,6.5078503 0.2732653,6.423952 0.2977613,6.3247994 0.30687694,6.2875113 0.42076814,5.8216316 0.60399197,5.3548745 0.93842533,4.6786609 1.0809882,4.3904033 1.2277463,4.0929457 1.2645545,4.0176439 c 0.036808,-0.075302 0.090198,-0.1369123 0.118644,-0.1369123 0.028446,0 0.05172,-0.045763 0.05172,-0.1016949 0,-0.055932 0.022881,-0.1019034 0.050847,-0.1021582 C 1.5137322,3.6766209 1.6128848,3.5641159 1.7061051,3.4268611 2.144276,2.7817116 2.7577449,2.1615844 3.4010204,1.71355 3.5315289,1.6226523 3.6535628,1.5273776 3.6722068,1.5018285 3.7299914,1.4226427 5.1087562,0.6780003 5.2315289,0.65967081 5.3537632,0.64142166 5.8226118,0.46147417 5.8925458,0.40596772 c 0.04661,-0.0369944 0.084746,-0.0471993 0.084746,-0.0226775 0,0.0245217 0.05339,0.0160257 0.118644,-0.01888 C 6.1611899,0.32950442 6.3061051,0.28447095 6.4179695,0.2643358 6.529834,0.24420065 6.6976306,0.21042829 6.7908509,0.18928611 7.2363336,0.08825162 7.7058963,0.05075754 8.4518679,0.0566557 9.334979,0.0636382 9.6896563,0.10000773 10.367122,0.25305109 c 0.0839,0.0189531 0.217635,0.0487476 0.297192,0.0662099 0.170386,0.0373987 0.685432,0.21810298 0.973995,0.3417269 0.766514,0.32838468 0.915254,0.40157691 0.915254,0.45038001 0,0.030204 0.07627,0.074059 0.169491,0.097456 0.09322,0.023397 0.169492,0.069741 0.169492,0.1029865 0,0.033246 0.04576,0.060447 0.101695,0.060447 0.05593,0 0.101695,0.030509 0.101695,0.067797 0,0.037288 0.03269,0.067797 0.07264,0.067797 0.03995,0 0.112842,0.038136 0.161979,0.084746 0.04914,0.04661 0.176619,0.1457627 0.283293,0.220339 0.384432,0.2687578 1.433159,1.3652482 1.71835,1.7966102 0.242884,0.3673721 0.701263,1.2303392 0.954299,1.7966102 0.08542,0.1911516 0.245116,0.7023481 0.30711,0.9830508 0.02882,0.1305085 0.05931,0.2677966 0.06775,0.3050848 0.223391,0.9871905 0.236174,2.5458766 0.02752,3.3559316 -0.03362,0.130509 -0.0754,0.313559 -0.09285,0.40678 -0.01745,0.09322 -0.0787,0.299577 -0.136116,0.458571 -0.05741,0.158993 -0.109474,0.311535 -0.115692,0.338983 -0.02435,0.107495 -0.07684,0.259388 -0.134385,0.388887 -0.03314,0.07458 -0.08969,0.217016 -0.125676,0.316533 -0.03599,0.09952 -0.29084,0.557144 -0.566345,1.016949 -0.275506,0.459805 -0.522466,0.881772 -0.548802,0.937704 -0.02634,0.05593 -0.08482,0.164133 -0.129969,0.240446 -0.275379,0.465475 -1.38987,2.307357 -1.487859,2.458937 -0.0647,0.100085 -0.149909,0.24299 -0.189352,0.317566 -0.08541,0.161496 -0.109735,0.202618 -0.676062,1.1431 -0.242373,0.402501 -0.493615,0.813354 -0.558315,0.913005 -0.0647,0.09965 -0.149052,0.2422 -0.187448,0.316776 -0.03839,0.07458 -0.12992,0.227119 -0.203389,0.338984 -0.07347,0.111864 -0.164995,0.264406 -0.20339,0.338983 -0.03839,0.07458 -0.129921,0.227118 -0.20339,0.338983 -0.07347,0.111864 -0.164469,0.264406 -0.202221,0.338983 -0.09654,0.190697 -0.223904,0.385177 -0.323203,0.493505 -0.04661,0.05085 -0.08475,0.136034 -0.08475,0.189304 0,0.05327 -0.02993,0.09685 -0.06651,0.09685 -0.03658,0 -0.08565,0.07627 -0.109044,0.169491 -0.0234,0.09322 -0.06769,0.169492 -0.09842,0.169492 -0.03073,0 -0.07692,0.0663 -0.102641,0.147335 -0.02572,0.08103 -0.07573,0.180186 -0.111131,0.220339 -0.035403,0.04015 -0.2986192,0.451849 -0.5849249,0.914883 -0.2863058,0.463034 -0.5663187,0.849069 -0.6222509,0.857856 -0.055932,0.0088 -0.1474576,0.03055 -0.2033898,0.04837 -0.055932,0.01781 -0.1597193,0.01763 -0.2306387,-4.07e-4 z m 1.3153844,-3.922875 c 0.6152539,-1.026405 1.1715809,-1.948409 1.2362819,-2.048898 0.0647,-0.100488 0.149052,-0.243723 0.187447,-0.318299 0.03839,-0.07458 0.130038,-0.227119 0.203649,-0.338983 0.07361,-0.111865 0.155232,-0.248139 0.181378,-0.302831 0.02615,-0.05469 0.786905,-1.339863 1.690578,-2.855935 1.787529,-2.998899 2.026563,-3.513022 2.200771,-4.7334878 C 15.58504,8.1932598 15.374033,6.6861177 14.859749,5.5429348 14.376978,4.4698053 13.309854,3.2155394 12.329258,2.5686719 9.9662096,1.009845 6.965659,1.0058795 4.5773621,2.558427 3.4857219,3.2680638 2.4718346,4.4704693 1.9692882,5.651436 1.3111062,7.1981411 1.2169689,9.0565669 1.7207139,10.558698 c 0.258101,0.769638 0.5274542,1.257702 2.0289358,3.676403 0.8280649,1.333911 1.5478979,2.501563 1.5996291,2.594783 0.051731,0.09322 0.1760612,0.298661 0.2762889,0.456535 0.1002278,0.157874 0.7899077,1.263806 1.5326222,2.457627 0.7427139,1.193821 1.3681376,2.169707 1.3898305,2.168634 0.021692,-0.0011 0.5428305,-0.841736 1.1580847,-1.868141 z"
   id="path883"
   inkscape:connector-curvature="0" /><path
   style="fill:#242424;fill-opacity:0.15962441;fill-rule:evenodd;stroke:none;stroke-width:0.06779661"
   d="M 8.3423526,21.557496 C 8.2461723,21.399682 6.9079758,19.241749 5.3685828,16.762088 3.8291897,14.282427 2.4237822,11.979037 2.2454551,11.643444 0.68015991,8.6977201 1.4540658,5.0843898 4.1049923,2.9613524 6.3947563,1.1275578 9.6062902,0.94233499 12.134812,2.4982386 c 0.607617,0.3738917 1.677293,1.4148503 2.109025,2.0524027 0.879853,1.2993093 1.279748,2.8855173 1.146839,4.5489975 -0.06848,0.8570881 -0.292532,1.6093492 -0.736319,2.4722152 -0.370009,0.719417 -5.8991217,10.016748 -6.0594064,10.189032 -0.060236,0.06475 -0.1170746,0.01898 -0.252598,-0.20339 z M 9.7061051,12.496164 C 11.325048,11.991884 12.535713,10.470137 12.666417,8.7752001 12.824123,6.730119 11.459096,4.8276617 9.4715221,4.3224287 8.9453912,4.1886885 7.9058647,4.1905913 7.3823294,4.3262529 5.900618,4.710203 4.6609265,5.9622191 4.3166522,7.4224084 c -0.1296667,0.5499625 -0.129566,1.5415571 2.086e-4,2.0542487 0.381568,1.5074339 1.6873436,2.7714919 3.2197528,3.1168879 0.5783505,0.130356 1.5831593,0.08525 2.1694915,-0.09738 z"
   id="path885"
   inkscape:connector-curvature="0" /><path
   style="fill:#242424;fill-opacity:0.15962441;fill-rule:evenodd;stroke:none;stroke-width:0.06779661"
   d="M 7.6383085,11.10793 C 6.6058641,10.781411 5.7832923,9.7888523 5.6702362,8.7331499 5.4779385,6.9375013 7.1449224,5.3701545 8.8998993,5.6965267 c 0.8819896,0.1640231 1.6387547,0.7421485 2.0409867,1.5591965 0.180658,0.3669687 0.220451,0.5359392 0.244455,1.0380147 0.02394,0.5006769 0.003,0.6723367 -0.126642,1.0396403 -0.286684,0.8120678 -0.938691,1.4684098 -1.7216903,1.7331368 -0.4649332,0.157192 -1.2705156,0.176832 -1.6987002,0.04141 z"
   id="path887"
   inkscape:connector-curvature="0" /></svg>
